<svg xmlns="http://www.w3.org/2000/svg" version="1.1" xmlns:xlink="http://www.w3.org/1999/xlink" xmlns:svgjs="http://svgjs.dev/svgjs" width="1440" height="250" preserveAspectRatio="none" viewBox="0 0 1440 250"><g mask="url(&quot;#SvgjsMask1057&quot;)" fill="none"><path d="M30 250L280 0L565 0L315 250z" fill="url(&quot;#SvgjsLinearGradient1058&quot;)"></path><path d="M252.60000000000002 250L502.6 0L616.6 0L366.6 250z" fill="url(&quot;#SvgjsLinearGradient1058&quot;)"></path><path d="M520.2 250L770.2 0L813.7 0L563.7 250z" fill="url(&quot;#SvgjsLinearGradient1058&quot;)"></path><path d="M737.8000000000001 250L987.8000000000001 0L1266.8000000000002 0L1016.8000000000001 250z" fill="url(&quot;#SvgjsLinearGradient1058&quot;)"></path><path d="M1433 250L1183 0L1102 0L1352 250z" fill="url(&quot;#SvgjsLinearGradient1059&quot;)"></path><path d="M1199.4 250L949.4000000000001 0L860.9000000000001 0L1110.9 250z" fill="url(&quot;#SvgjsLinearGradient1059&quot;)"></path><path d="M952.8 250L702.8 0L452.29999999999995 0L702.3 250z" fill="url(&quot;#SvgjsLinearGradient1059&quot;)"></path><path d="M711.1999999999999 250L461.19999999999993 0L281.19999999999993 0L531.1999999999999 250z" fill="url(&quot;#SvgjsLinearGradient1059&quot;)"></path><path d="M1302.2818852352748 250L1440 112.28188523527473L1440 250z" fill="url(&quot;#SvgjsLinearGradient1058&quot;)"></path><path d="M0 250L137.71811476472527 250L 0 112.28188523527473z" fill="url(&quot;#SvgjsLinearGradient1059&quot;)"></path></g><defs><mask id="SvgjsMask1057"><rect width="1440" height="250" fill="#ffffff"></rect></mask><linearGradient x1="0%" y1="100%" x2="100%" y2="0%" id="SvgjsLinearGradient1058"><stop stop-color="rgba(231, 161, 26, 0.12941176470588237)" offset="0"></stop><stop stop-opacity="0" stop-color="rgba(231, 161, 26, 0.12941176470588237)" offset="0.66"></stop></linearGradient><linearGradient x1="100%" y1="100%" x2="0%" y2="0%" id="SvgjsLinearGradient1059"><stop stop-color="rgba(231, 161, 26, 0.12941176470588237)" offset="0"></stop><stop stop-opacity="0" stop-color="rgba(231, 161, 26, 0.12941176470588237)" offset="0.66"></stop></linearGradient></defs></svg>