<svg xmlns="http://www.w3.org/2000/svg" version="1.1" xmlns:xlink="http://www.w3.org/1999/xlink" xmlns:svgjs="http://svgjs.dev/svgjs" width="1440" height="250" preserveAspectRatio="none" viewBox="0 0 1440 250"><g mask="url(&quot;#SvgjsMask1105&quot;)" fill="none"><path d="M47 250L297 0L420 0L170 250z" fill="url(&quot;#SvgjsLinearGradient1106&quot;)"></path><path d="M280.6 250L530.6 0L625.1 0L375.1 250z" fill="url(&quot;#SvgjsLinearGradient1106&quot;)"></path><path d="M491.20000000000005 250L741.2 0L802.7 0L552.7 250z" fill="url(&quot;#SvgjsLinearGradient1106&quot;)"></path><path d="M723.8000000000001 250L973.8000000000001 0L1278.3000000000002 0L1028.3000000000002 250z" fill="url(&quot;#SvgjsLinearGradient1106&quot;)"></path><path d="M1425 250L1175 0L819.5 0L1069.5 250z" fill="url(&quot;#SvgjsLinearGradient1107&quot;)"></path><path d="M1166.4 250L916.4000000000001 0L593.9000000000001 0L843.9000000000001 250z" fill="url(&quot;#SvgjsLinearGradient1107&quot;)"></path><path d="M940.8 250L690.8 0L416.29999999999995 0L666.3 250z" fill="url(&quot;#SvgjsLinearGradient1107&quot;)"></path><path d="M701.1999999999999 250L451.19999999999993 0L205.19999999999993 0L455.19999999999993 250z" fill="url(&quot;#SvgjsLinearGradient1107&quot;)"></path><path d="M1247.2116573517249 250L1440 57.21165735172491L1440 250z" fill="url(&quot;#SvgjsLinearGradient1106&quot;)"></path><path d="M0 250L192.7883426482751 250L 0 57.21165735172491z" fill="url(&quot;#SvgjsLinearGradient1107&quot;)"></path></g><defs><mask id="SvgjsMask1105"><rect width="1440" height="250" fill="#ffffff"></rect></mask><linearGradient x1="0%" y1="100%" x2="100%" y2="0%" id="SvgjsLinearGradient1106"><stop stop-color="rgba(46, 204, 64, 0.06274509803921569)" offset="0"></stop><stop stop-opacity="0" stop-color="rgba(46, 204, 64, 0.06274509803921569)" offset="0.66"></stop></linearGradient><linearGradient x1="100%" y1="100%" x2="0%" y2="0%" id="SvgjsLinearGradient1107"><stop stop-color="rgba(46, 204, 64, 0.06274509803921569)" offset="0"></stop><stop stop-opacity="0" stop-color="rgba(46, 204, 64, 0.06274509803921569)" offset="0.66"></stop></linearGradient></defs></svg>