<svg xmlns="http://www.w3.org/2000/svg" version="1.1" xmlns:xlink="http://www.w3.org/1999/xlink" xmlns:svgjs="http://svgjs.dev/svgjs" width="1440" height="250" preserveAspectRatio="none" viewBox="0 0 1440 250"><g mask="url(&quot;#SvgjsMask1150&quot;)" fill="none"><path d="M35 250L285 0L445.5 0L195.5 250z" fill="url(&quot;#SvgjsLinearGradient1151&quot;)"></path><path d="M279.6 250L529.6 0L610.6 0L360.6 250z" fill="url(&quot;#SvgjsLinearGradient1151&quot;)"></path><path d="M501.20000000000005 250L751.2 0L862.2 0L612.2 250z" fill="url(&quot;#SvgjsLinearGradient1151&quot;)"></path><path d="M744.8000000000001 250L994.8000000000001 0L1182.3000000000002 0L932.3000000000001 250z" fill="url(&quot;#SvgjsLinearGradient1151&quot;)"></path><path d="M1412 250L1162 0L982 0L1232 250z" fill="url(&quot;#SvgjsLinearGradient1152&quot;)"></path><path d="M1180.4 250L930.4000000000001 0L889.9000000000001 0L1139.9 250z" fill="url(&quot;#SvgjsLinearGradient1152&quot;)"></path><path d="M937.8 250L687.8 0L522.8 0L772.8 250z" fill="url(&quot;#SvgjsLinearGradient1152&quot;)"></path><path d="M706.1999999999999 250L456.19999999999993 0L129.19999999999993 0L379.19999999999993 250z" fill="url(&quot;#SvgjsLinearGradient1152&quot;)"></path><path d="M1292.6021294394554 250L1440 102.60212943945541L1440 250z" fill="url(&quot;#SvgjsLinearGradient1151&quot;)"></path><path d="M0 250L147.3978705605446 250L 0 102.60212943945541z" fill="url(&quot;#SvgjsLinearGradient1152&quot;)"></path></g><defs><mask id="SvgjsMask1150"><rect width="1440" height="250" fill="#ffffff"></rect></mask><linearGradient x1="0%" y1="100%" x2="100%" y2="0%" id="SvgjsLinearGradient1151"><stop stop-color="rgba(255, 111, 60, 0.12941176470588237)" offset="0"></stop><stop stop-opacity="0" stop-color="rgba(255, 111, 60, 0.12941176470588237)" offset="0.66"></stop></linearGradient><linearGradient x1="100%" y1="100%" x2="0%" y2="0%" id="SvgjsLinearGradient1152"><stop stop-color="rgba(255, 111, 60, 0.12941176470588237)" offset="0"></stop><stop stop-opacity="0" stop-color="rgba(255, 111, 60, 0.12941176470588237)" offset="0.66"></stop></linearGradient></defs></svg>