<svg xmlns="http://www.w3.org/2000/svg" version="1.1" xmlns:xlink="http://www.w3.org/1999/xlink" xmlns:svgjs="http://svgjs.dev/svgjs" width="1440" height="560" preserveAspectRatio="none" viewBox="0 0 1440 560"><g mask="url(&quot;#SvgjsMask1001&quot;)" fill="none"><path d="M912.906,543.48C971.704,547.862,1042.579,550.108,1071.806,498.901C1100.925,447.883,1060.986,389.401,1028.952,340.161C1000.868,296.992,964.266,258.438,912.906,254.649C854.518,250.341,791.028,269.205,762.855,320.528C735.387,370.567,758.471,430.566,790.342,477.922C818.068,519.119,863.385,539.789,912.906,543.48" fill="rgba(28, 83, 142, 0.4)" class="triangle-float2"></path><path d="M524.582,287.443C573.341,286.852,617.745,258.258,640.265,215.007C661.253,174.699,651.313,127.522,628.233,88.374C605.581,49.952,569.141,16.832,524.582,18.788C482.333,20.643,457.499,60.666,435.582,96.833C412.417,135.059,385.027,177.372,403.937,217.872C424.987,262.955,474.831,288.046,524.582,287.443" fill="rgba(28, 83, 142, 0.4)" class="triangle-float1"></path><path d="M771.8,657.529C810.884,658.352,838.716,622.554,855.782,587.383C870.558,556.931,868.168,522.336,851.766,492.728C834.771,462.049,806.799,438.046,771.8,435.784C732.62,433.252,689.979,446.355,671.678,481.091C654.157,514.348,675.174,551.279,693.726,583.972C712.64,617.302,733.485,656.722,771.8,657.529" fill="rgba(28, 83, 142, 0.4)" class="triangle-float1"></path><path d="M583.998,636.291C615.41,636.339,646.055,623.671,662.654,597.003C680.21,568.797,683.366,532.578,666.289,504.079C649.618,476.256,616.325,463.088,583.998,465.735C555.646,468.057,536.734,491.459,522.15,515.883C507.034,541.197,492.284,570.537,505.755,596.764C520.064,624.622,552.68,636.243,583.998,636.291" fill="rgba(28, 83, 142, 0.4)" class="triangle-float2"></path><path d="M1186.041,152.567C1206.486,152.623,1227.498,147.054,1238.574,129.869C1250.534,111.314,1251.64,87.154,1240.479,68.108C1229.43,49.255,1207.887,39.695,1186.041,40.226C1165.125,40.734,1146.531,52.568,1136.002,70.648C1125.4,88.853,1123.021,111.605,1134.003,129.583C1144.598,146.927,1165.717,152.511,1186.041,152.567" fill="rgba(28, 83, 142, 0.4)" class="triangle-float2"></path><path d="M716.877,178.762C740.105,180.335,764.674,172.932,776.742,153.023C789.174,132.514,785.329,106.63,773.114,85.991C761.145,65.766,740.349,50.711,716.877,51.868C694.925,52.95,679.375,71.47,669.488,91.1C660.703,108.543,660.298,128.584,669.585,145.764C679.382,163.887,696.322,177.37,716.877,178.762" fill="rgba(28, 83, 142, 0.4)" class="triangle-float1"></path><path d="M981.239,324.419C1023.199,327.11,1067.061,308.03,1085.791,270.386C1103.186,235.426,1081.29,197.338,1061.099,163.915C1041.889,132.116,1018.371,98.493,981.239,97.314C942.617,96.088,909.901,124.261,892.086,158.55C875.628,190.228,880.688,226.874,897.589,258.318C915.622,291.869,943.227,321.982,981.239,324.419" fill="rgba(28, 83, 142, 0.4)" class="triangle-float1"></path><path d="M1116.487,675.351C1160.618,673.799,1192.89,637.085,1212.509,597.525C1229.804,562.651,1225.953,523.706,1209.092,488.62C1189.011,446.833,1162.814,399.519,1116.487,397.711C1068.382,395.834,1032.802,438.227,1010.456,480.869C989.915,520.067,986.828,565.86,1008.011,604.715C1030.148,645.319,1070.269,676.976,1116.487,675.351" fill="rgba(28, 83, 142, 0.4)" class="triangle-float2"></path><path d="M154.23,475.642C174.941,475.199,192.042,462.235,203.401,444.911C216.279,425.27,227.213,401.464,216.602,380.512C205.235,358.067,179.32,345.954,154.23,347.821C131.724,349.496,116.724,368.824,106.102,388.736C96.255,407.196,91.138,428.794,101.274,447.097C111.687,465.899,132.742,476.102,154.23,475.642" fill="rgba(28, 83, 142, 0.4)" class="triangle-float1"></path><path d="M1400.191,303.268C1416.222,304.078,1433.629,300.686,1442.088,287.045C1450.902,272.831,1447.181,255.031,1439.226,240.319C1430.781,224.7,1417.947,209.646,1400.191,209.555C1382.326,209.464,1368.159,223.796,1360.459,239.916C1353.764,253.932,1356.785,269.993,1365.038,283.152C1372.726,295.411,1385.739,302.538,1400.191,303.268" fill="rgba(28, 83, 142, 0.4)" class="triangle-float3"></path><path d="M165.573,424.323C211.546,424.109,263.433,420.094,286.499,380.326C309.613,340.474,287.137,293.512,264.821,253.208C241.485,211.063,213.681,164.448,165.573,161.929C114.43,159.251,71.541,197.089,46.525,241.777C22.139,285.339,15.409,339.646,42.68,381.462C68.08,420.41,119.075,424.54,165.573,424.323" fill="rgba(28, 83, 142, 0.4)" class="triangle-float2"></path><path d="M518.001,398.025C571.621,398.628,625.65,381.973,655.241,337.254C688.021,287.714,696.327,223.633,667.914,171.466C638.364,117.211,579.687,81.863,518.001,85.276C460.962,88.432,421.067,136.132,394.307,186.603C369.562,233.273,359.329,288.633,386.004,334.227C412.454,379.436,465.626,397.436,518.001,398.025" fill="rgba(28, 83, 142, 0.4)" class="triangle-float1"></path><path d="M1007.836,346.739C1035.254,346.844,1059.365,331.465,1074.391,308.531C1091.273,282.764,1103.717,250.317,1088.588,223.483C1073.281,196.335,1038.973,189.151,1007.836,190.487C979.286,191.712,952.192,204.986,938.253,229.932C924.626,254.318,927.86,284.026,942.157,308.025C956.097,331.426,980.598,346.635,1007.836,346.739" fill="rgba(28, 83, 142, 0.4)" class="triangle-float3"></path><path d="M418.42,466.209C436.939,466.505,456.938,461.965,466.107,445.873C475.213,429.892,469.037,410.33,459.067,394.874C450.029,380.864,435.091,372.104,418.42,371.95C401.464,371.793,385.413,379.714,376.448,394.108C366.933,409.385,364.25,428.834,373.305,444.388C382.312,459.861,400.518,465.923,418.42,466.209" fill="rgba(28, 83, 142, 0.4)" class="triangle-float2"></path><path d="M1282.549,539.43C1324.17,538.556,1356.815,508.537,1378.124,472.774C1400.074,435.937,1414.711,390.804,1393.216,353.7C1371.759,316.662,1325.3,305.672,1282.549,307.793C1243.763,309.717,1209.565,330.626,1189.397,363.812C1168.331,398.476,1160.75,441.106,1179.757,476.94C1199.896,514.908,1239.58,540.333,1282.549,539.43" fill="rgba(28, 83, 142, 0.4)" class="triangle-float2"></path><path d="M236.386,209.996C269.391,210.489,300.844,194.32,317.552,165.852C334.46,137.042,334.453,100.936,317.168,72.351C300.444,44.693,268.707,31.728,236.386,31.626C203.862,31.523,171.125,43.757,154.713,71.837C138.169,100.142,142.632,135.265,159.316,163.487C175.682,191.171,204.23,209.516,236.386,209.996" fill="rgba(28, 83, 142, 0.4)" class="triangle-float3"></path><path d="M1272.389,626.724C1299.363,625.86,1320.85,606.445,1333.836,582.787C1346.275,560.125,1348.635,533.134,1336.203,510.468C1323.29,486.924,1299.241,470.48,1272.389,470.755C1245.958,471.026,1224.249,488.997,1210.802,511.753C1197.074,534.985,1190.986,563.165,1203.728,586.952C1217.114,611.941,1244.056,627.631,1272.389,626.724" fill="rgba(28, 83, 142, 0.4)" class="triangle-float1"></path><path d="M533.996,710.618C582.03,707.456,623.002,681.546,649.619,641.436C680.091,595.517,705.927,539.006,680.234,490.251C653.357,439.248,591.608,419.905,533.996,422.028C480.206,424.011,433.491,454.523,405.31,500.384C375.55,548.815,358.941,610.134,388.618,658.616C417.416,705.663,478.954,714.241,533.996,710.618" fill="rgba(28, 83, 142, 0.4)" class="triangle-float3"></path><path d="M669.484,249.793C695.433,248.921,723.2,244.255,736.653,222.048C750.49,199.208,745.567,170.16,731.466,147.482C718.178,126.112,694.646,113.706,669.484,114.023C644.877,114.333,623.833,128.557,610.15,149.011C594.36,172.614,579.602,202.371,594.009,226.843C608.308,251.13,641.316,250.74,669.484,249.793" fill="rgba(28, 83, 142, 0.4)" class="triangle-float1"></path><path d="M111.373,626.444C142.269,628.146,174.946,617.106,189.969,590.054C204.675,563.572,192.641,532.719,178.21,506.087C162.799,477.647,143.702,446.074,111.373,445.01C77.885,443.908,50.785,471.135,36.452,501.421C24.02,527.69,31.531,557.219,46.47,582.148C60.9,606.228,83.343,624.9,111.373,626.444" fill="rgba(28, 83, 142, 0.4)" class="triangle-float2"></path></g><defs><mask id="SvgjsMask1001"><rect width="1440" height="560" fill="#ffffff"></rect></mask><style>
                @keyframes float1 {
                    0%{transform: translate(0, 0)}
                    50%{transform: translate(-10px, 0)}
                    100%{transform: translate(0, 0)}
                }

                .triangle-float1 {
                    animation: float1 5s infinite;
                }

                @keyframes float2 {
                    0%{transform: translate(0, 0)}
                    50%{transform: translate(-5px, -5px)}
                    100%{transform: translate(0, 0)}
                }

                .triangle-float2 {
                    animation: float2 4s infinite;
                }

                @keyframes float3 {
                    0%{transform: translate(0, 0)}
                    50%{transform: translate(0, -10px)}
                    100%{transform: translate(0, 0)}
                }

                .triangle-float3 {
                    animation: float3 6s infinite;
                }
            </style></defs></svg>