<svg xmlns="http://www.w3.org/2000/svg" version="1.1" xmlns:xlink="http://www.w3.org/1999/xlink" xmlns:svgjs="http://svgjs.dev/svgjs" width="1440" height="250" preserveAspectRatio="none" viewBox="0 0 1440 250"><g mask="url(&quot;#SvgjsMask1060&quot;)" fill="none"><path d="M42 250L292 0L467.5 0L217.5 250z" fill="url(&quot;#SvgjsLinearGradient1061&quot;)"></path><path d="M273.6 250L523.6 0L615.1 0L365.1 250z" fill="url(&quot;#SvgjsLinearGradient1061&quot;)"></path><path d="M481.20000000000005 250L731.2 0L969.7 0L719.7 250z" fill="url(&quot;#SvgjsLinearGradient1061&quot;)"></path><path d="M743.8000000000001 250L993.8000000000001 0L1313.3000000000002 0L1063.3000000000002 250z" fill="url(&quot;#SvgjsLinearGradient1061&quot;)"></path><path d="M1430 250L1180 0L1054 0L1304 250z" fill="url(&quot;#SvgjsLinearGradient1062&quot;)"></path><path d="M1161.4 250L911.4000000000001 0L782.4000000000001 0L1032.4 250z" fill="url(&quot;#SvgjsLinearGradient1062&quot;)"></path><path d="M953.8 250L703.8 0L513.3 0L763.3 250z" fill="url(&quot;#SvgjsLinearGradient1062&quot;)"></path><path d="M680.1999999999999 250L430.19999999999993 0L316.19999999999993 0L566.1999999999999 250z" fill="url(&quot;#SvgjsLinearGradient1062&quot;)"></path><path d="M1292.4731111651981 250L1440 102.47311116519822L1440 250z" fill="url(&quot;#SvgjsLinearGradient1061&quot;)"></path><path d="M0 250L147.52688883480178 250L 0 102.47311116519822z" fill="url(&quot;#SvgjsLinearGradient1062&quot;)"></path></g><defs><mask id="SvgjsMask1060"><rect width="1440" height="250" fill="#ffffff"></rect></mask><linearGradient x1="0%" y1="100%" x2="100%" y2="0%" id="SvgjsLinearGradient1061"><stop stop-color="rgba(38, 83, 177, 0.13)" offset="0"></stop><stop stop-opacity="0" stop-color="rgba(38, 83, 177, 0.13)" offset="0.66"></stop></linearGradient><linearGradient x1="100%" y1="100%" x2="0%" y2="0%" id="SvgjsLinearGradient1062"><stop stop-color="rgba(38, 83, 177, 0.13)" offset="0"></stop><stop stop-opacity="0" stop-color="rgba(38, 83, 177, 0.13)" offset="0.66"></stop></linearGradient></defs></svg>