<svg xmlns="http://www.w3.org/2000/svg" version="1.1" xmlns:xlink="http://www.w3.org/1999/xlink" xmlns:svgjs="http://svgjs.dev/svgjs" width="1440" height="250" preserveAspectRatio="none" viewBox="0 0 1440 250"><g mask="url(&quot;#SvgjsMask1018&quot;)" fill="none"><path d="M27 250L277 0L508 0L258 250z" fill="url(&quot;#SvgjsLinearGradient1019&quot;)"></path><path d="M281.6 250L531.6 0L881.1 0L631.1 250z" fill="url(&quot;#SvgjsLinearGradient1019&quot;)"></path><path d="M477.20000000000005 250L727.2 0L1073.7 0L823.7 250z" fill="url(&quot;#SvgjsLinearGradient1019&quot;)"></path><path d="M755.8000000000001 250L1005.8000000000001 0L1236.8000000000002 0L986.8000000000001 250z" fill="url(&quot;#SvgjsLinearGradient1019&quot;)"></path><path d="M1432 250L1182 0L1023 0L1273 250z" fill="url(&quot;#SvgjsLinearGradient1020&quot;)"></path><path d="M1195.4 250L945.4000000000001 0L789.4000000000001 0L1039.4 250z" fill="url(&quot;#SvgjsLinearGradient1020&quot;)"></path><path d="M917.8 250L667.8 0L558.3 0L808.3 250z" fill="url(&quot;#SvgjsLinearGradient1020&quot;)"></path><path d="M691.1999999999999 250L441.19999999999993 0L142.69999999999993 0L392.69999999999993 250z" fill="url(&quot;#SvgjsLinearGradient1020&quot;)"></path><path d="M1310.2851667833752 250L1440 120.28516678337508L1440 250z" fill="url(&quot;#SvgjsLinearGradient1019&quot;)"></path><path d="M0 250L129.71483321662492 250L 0 120.28516678337508z" fill="url(&quot;#SvgjsLinearGradient1020&quot;)"></path></g><defs><mask id="SvgjsMask1018"><rect width="1440" height="250" fill="#ffffff"></rect></mask><linearGradient x1="0%" y1="100%" x2="100%" y2="0%" id="SvgjsLinearGradient1019"><stop stop-color="rgba(194, 65, 12, 0.12549019607843137)" offset="0"></stop><stop stop-opacity="0" stop-color="rgba(194, 65, 12, 0.12549019607843137)" offset="0.66"></stop></linearGradient><linearGradient x1="100%" y1="100%" x2="0%" y2="0%" id="SvgjsLinearGradient1020"><stop stop-color="rgba(194, 65, 12, 0.12549019607843137)" offset="0"></stop><stop stop-opacity="0" stop-color="rgba(194, 65, 12, 0.12549019607843137)" offset="0.66"></stop></linearGradient></defs></svg>