<svg xmlns="http://www.w3.org/2000/svg" version="1.1" xmlns:xlink="http://www.w3.org/1999/xlink" xmlns:svgjs="http://svgjs.dev/svgjs" width="1440" height="250" preserveAspectRatio="none" viewBox="0 0 1440 250"><g mask="url(&quot;#SvgjsMask1141&quot;)" fill="none"><path d="M37 250L287 0L497 0L247 250z" fill="url(&quot;#SvgjsLinearGradient1142&quot;)"></path><path d="M277.6 250L527.6 0L626.6 0L376.6 250z" fill="url(&quot;#SvgjsLinearGradient1142&quot;)"></path><path d="M484.20000000000005 250L734.2 0L876.7 0L626.7 250z" fill="url(&quot;#SvgjsLinearGradient1142&quot;)"></path><path d="M741.8000000000001 250L991.8000000000001 0L1186.8000000000002 0L936.8000000000001 250z" fill="url(&quot;#SvgjsLinearGradient1142&quot;)"></path><path d="M1410 250L1160 0L935 0L1185 250z" fill="url(&quot;#SvgjsLinearGradient1143&quot;)"></path><path d="M1199.4 250L949.4000000000001 0L857.9000000000001 0L1107.9 250z" fill="url(&quot;#SvgjsLinearGradient1143&quot;)"></path><path d="M932.8 250L682.8 0L462.29999999999995 0L712.3 250z" fill="url(&quot;#SvgjsLinearGradient1143&quot;)"></path><path d="M714.1999999999999 250L464.19999999999993 0L285.69999999999993 0L535.6999999999999 250z" fill="url(&quot;#SvgjsLinearGradient1143&quot;)"></path><path d="M1208.0528772161188 250L1440 18.052877216118844L1440 250z" fill="url(&quot;#SvgjsLinearGradient1142&quot;)"></path><path d="M0 250L231.94712278388116 250L 0 18.052877216118844z" fill="url(&quot;#SvgjsLinearGradient1143&quot;)"></path></g><defs><mask id="SvgjsMask1141"><rect width="1440" height="250" fill="#ffffff"></rect></mask><linearGradient x1="0%" y1="100%" x2="100%" y2="0%" id="SvgjsLinearGradient1142"><stop stop-color="rgba(100, 116, 139, 0.06274509803921569)" offset="0"></stop><stop stop-opacity="0" stop-color="rgba(100, 116, 139, 0.06274509803921569)" offset="0.66"></stop></linearGradient><linearGradient x1="100%" y1="100%" x2="0%" y2="0%" id="SvgjsLinearGradient1143"><stop stop-color="rgba(100, 116, 139, 0.06274509803921569)" offset="0"></stop><stop stop-opacity="0" stop-color="rgba(100, 116, 139, 0.06274509803921569)" offset="0.66"></stop></linearGradient></defs></svg>