<svg xmlns="http://www.w3.org/2000/svg" version="1.1" xmlns:xlink="http://www.w3.org/1999/xlink" xmlns:svgjs="http://svgjs.dev/svgjs" width="1440" height="250" preserveAspectRatio="none" viewBox="0 0 1440 250"><g mask="url(&quot;#SvgjsMask1117&quot;)" fill="none"><path d="M40 250L290 0L540.5 0L290.5 250z" fill="url(&quot;#SvgjsLinearGradient1118&quot;)"></path><path d="M281.6 250L531.6 0L660.6 0L410.6 250z" fill="url(&quot;#SvgjsLinearGradient1118&quot;)"></path><path d="M518.2 250L768.2 0L1120.7 0L870.7 250z" fill="url(&quot;#SvgjsLinearGradient1118&quot;)"></path><path d="M743.8000000000001 250L993.8000000000001 0L1058.3000000000002 0L808.3000000000001 250z" fill="url(&quot;#SvgjsLinearGradient1118&quot;)"></path><path d="M1410 250L1160 0L924.5 0L1174.5 250z" fill="url(&quot;#SvgjsLinearGradient1119&quot;)"></path><path d="M1155.4 250L905.4000000000001 0L767.4000000000001 0L1017.4000000000001 250z" fill="url(&quot;#SvgjsLinearGradient1119&quot;)"></path><path d="M957.8 250L707.8 0L401.79999999999995 0L651.8 250z" fill="url(&quot;#SvgjsLinearGradient1119&quot;)"></path><path d="M715.1999999999999 250L465.19999999999993 0L111.19999999999993 0L361.19999999999993 250z" fill="url(&quot;#SvgjsLinearGradient1119&quot;)"></path><path d="M1246.241492891605 250L1440 56.24149289160508L1440 250z" fill="url(&quot;#SvgjsLinearGradient1118&quot;)"></path><path d="M0 250L193.75850710839492 250L 0 56.24149289160508z" fill="url(&quot;#SvgjsLinearGradient1119&quot;)"></path></g><defs><mask id="SvgjsMask1117"><rect width="1440" height="250" fill="#ffffff"></rect></mask><linearGradient x1="0%" y1="100%" x2="100%" y2="0%" id="SvgjsLinearGradient1118"><stop stop-color="rgba(168, 85, 247, 0.06274509803921569)" offset="0"></stop><stop stop-opacity="0" stop-color="rgba(168, 85, 247, 0.06274509803921569)" offset="0.66"></stop></linearGradient><linearGradient x1="100%" y1="100%" x2="0%" y2="0%" id="SvgjsLinearGradient1119"><stop stop-color="rgba(168, 85, 247, 0.06274509803921569)" offset="0"></stop><stop stop-opacity="0" stop-color="rgba(168, 85, 247, 0.06274509803921569)" offset="0.66"></stop></linearGradient></defs></svg>