<svg xmlns="http://www.w3.org/2000/svg" version="1.1" xmlns:xlink="http://www.w3.org/1999/xlink" xmlns:svgjs="http://svgjs.dev/svgjs" width="1440" height="250" preserveAspectRatio="none" viewBox="0 0 1440 250"><g mask="url(&quot;#SvgjsMask1111&quot;)" fill="none"><path d="M3 250L253 0L293.5 0L43.5 250z" fill="url(&quot;#SvgjsLinearGradient1112&quot;)"></path><path d="M285.6 250L535.6 0L822.1 0L572.1 250z" fill="url(&quot;#SvgjsLinearGradient1112&quot;)"></path><path d="M479.20000000000005 250L729.2 0L871.7 0L621.7 250z" fill="url(&quot;#SvgjsLinearGradient1112&quot;)"></path><path d="M735.8000000000001 250L985.8000000000001 0L1167.3000000000002 0L917.3000000000001 250z" fill="url(&quot;#SvgjsLinearGradient1112&quot;)"></path><path d="M1423 250L1173 0L984 0L1234 250z" fill="url(&quot;#SvgjsLinearGradient1113&quot;)"></path><path d="M1194.4 250L944.4000000000001 0L747.9000000000001 0L997.9000000000001 250z" fill="url(&quot;#SvgjsLinearGradient1113&quot;)"></path><path d="M943.8 250L693.8 0L611.3 0L861.3 250z" fill="url(&quot;#SvgjsLinearGradient1113&quot;)"></path><path d="M687.1999999999999 250L437.19999999999993 0L261.69999999999993 0L511.69999999999993 250z" fill="url(&quot;#SvgjsLinearGradient1113&quot;)"></path><path d="M1229.528860416424 250L1440 39.52886041642407L1440 250z" fill="url(&quot;#SvgjsLinearGradient1112&quot;)"></path><path d="M0 250L210.47113958357593 250L 0 39.52886041642407z" fill="url(&quot;#SvgjsLinearGradient1113&quot;)"></path></g><defs><mask id="SvgjsMask1111"><rect width="1440" height="250" fill="#ffffff"></rect></mask><linearGradient x1="0%" y1="100%" x2="100%" y2="0%" id="SvgjsLinearGradient1112"><stop stop-color="rgba(255, 111, 60, 0.06274509803921569)" offset="0"></stop><stop stop-opacity="0" stop-color="rgba(255, 111, 60, 0.06274509803921569)" offset="0.66"></stop></linearGradient><linearGradient x1="100%" y1="100%" x2="0%" y2="0%" id="SvgjsLinearGradient1113"><stop stop-color="rgba(255, 111, 60, 0.06274509803921569)" offset="0"></stop><stop stop-opacity="0" stop-color="rgba(255, 111, 60, 0.06274509803921569)" offset="0.66"></stop></linearGradient></defs></svg>