<svg xmlns="http://www.w3.org/2000/svg" version="1.1" xmlns:xlink="http://www.w3.org/1999/xlink" xmlns:svgjs="http://svgjs.dev/svgjs" width="1440" height="250" preserveAspectRatio="none" viewBox="0 0 1440 250"><g mask="url(&quot;#SvgjsMask1129&quot;)" fill="none"><path d="M13 250L263 0L468.5 0L218.5 250z" fill="url(&quot;#SvgjsLinearGradient1130&quot;)"></path><path d="M266.6 250L516.6 0L630.6 0L380.6 250z" fill="url(&quot;#SvgjsLinearGradient1130&quot;)"></path><path d="M480.20000000000005 250L730.2 0L949.2 0L699.2 250z" fill="url(&quot;#SvgjsLinearGradient1130&quot;)"></path><path d="M715.8000000000001 250L965.8000000000001 0L1261.3000000000002 0L1011.3000000000001 250z" fill="url(&quot;#SvgjsLinearGradient1130&quot;)"></path><path d="M1422 250L1172 0L908 0L1158 250z" fill="url(&quot;#SvgjsLinearGradient1131&quot;)"></path><path d="M1187.4 250L937.4000000000001 0L829.4000000000001 0L1079.4 250z" fill="url(&quot;#SvgjsLinearGradient1131&quot;)"></path><path d="M924.8 250L674.8 0L562.3 0L812.3 250z" fill="url(&quot;#SvgjsLinearGradient1131&quot;)"></path><path d="M707.1999999999999 250L457.19999999999993 0L200.69999999999993 0L450.69999999999993 250z" fill="url(&quot;#SvgjsLinearGradient1131&quot;)"></path><path d="M1230.7178490074766 250L1440 40.717849007476644L1440 250z" fill="url(&quot;#SvgjsLinearGradient1130&quot;)"></path><path d="M0 250L209.28215099252336 250L 0 40.717849007476644z" fill="url(&quot;#SvgjsLinearGradient1131&quot;)"></path></g><defs><mask id="SvgjsMask1129"><rect width="1440" height="250" fill="#ffffff"></rect></mask><linearGradient x1="0%" y1="100%" x2="100%" y2="0%" id="SvgjsLinearGradient1130"><stop stop-color="rgba(168, 154, 4, 0.06274509803921569)" offset="0"></stop><stop stop-opacity="0" stop-color="rgba(168, 154, 4, 0.06274509803921569)" offset="0.66"></stop></linearGradient><linearGradient x1="100%" y1="100%" x2="0%" y2="0%" id="SvgjsLinearGradient1131"><stop stop-color="rgba(168, 154, 4, 0.06274509803921569)" offset="0"></stop><stop stop-opacity="0" stop-color="rgba(168, 154, 4, 0.06274509803921569)" offset="0.66"></stop></linearGradient></defs></svg>