<svg xmlns="http://www.w3.org/2000/svg" version="1.1" xmlns:xlink="http://www.w3.org/1999/xlink" xmlns:svgjs="http://svgjs.dev/svgjs" width="1440" height="560" preserveAspectRatio="none" viewBox="0 0 1440 560"><g mask="url(&quot;#SvgjsMask1036&quot;)" fill="none"><path d="M0 0L183.45 0L0 47.35z" fill="rgba(255, 255, 255, .1)"></path><path d="M0 47.35L183.45 0L224.41 0L0 177.4z" fill="rgba(255, 255, 255, .075)"></path><path d="M0 177.4L224.41 0L604.41 0L0 374.4z" fill="rgba(255, 255, 255, .05)"></path><path d="M0 374.4L604.41 0L816.99 0L0 479.96999999999997z" fill="rgba(255, 255, 255, .025)"></path><path d="M1440 560L806.78 560L1440 325.56z" fill="rgba(0, 0, 0, .1)"></path><path d="M1440 325.56L806.78 560L622.48 560L1440 315.17z" fill="rgba(0, 0, 0, .075)"></path><path d="M1440 315.17L622.48 560L443.14 560L1440 303.76z" fill="rgba(0, 0, 0, .05)"></path><path d="M1440 303.76L443.14 560L175.71999999999997 560L1440 176.35999999999999z" fill="rgba(0, 0, 0, .025)"></path></g><defs><mask id="SvgjsMask1036"><rect width="1440" height="560" fill="#ffffff"></rect></mask></defs></svg>