<svg xmlns="http://www.w3.org/2000/svg" version="1.1" xmlns:xlink="http://www.w3.org/1999/xlink" xmlns:svgjs="http://svgjs.dev/svgjs" width="1440" height="560" preserveAspectRatio="none" viewBox="0 0 1440 560"><g mask="url(&quot;#SvgjsMask1035&quot;)" fill="none"><path d="M1440 0L1427.23 0L1440 17.98z" fill="rgba(255, 255, 255, .1)"></path><path d="M1427.23 0L1440 17.98L1440 301.15000000000003L1368.14 0z" fill="rgba(255, 255, 255, .075)"></path><path d="M1368.14 0L1440 301.15000000000003L1440 372.89000000000004L832.6800000000001 0z" fill="rgba(255, 255, 255, .05)"></path><path d="M832.68 0L1440 372.89000000000004L1440 461.20000000000005L337.28999999999996 0z" fill="rgba(255, 255, 255, .025)"></path><path d="M0 560L233.84 560L0 538.53z" fill="rgba(0, 0, 0, .1)"></path><path d="M0 538.53L233.84 560L556.18 560L0 499.17999999999995z" fill="rgba(0, 0, 0, .075)"></path><path d="M0 499.18L556.18 560L620.4599999999999 560L0 291.14z" fill="rgba(0, 0, 0, .05)"></path><path d="M0 291.14L620.4599999999999 560L630.6999999999999 560L0 119.20999999999998z" fill="rgba(0, 0, 0, .025)"></path></g><defs><mask id="SvgjsMask1035"><rect width="1440" height="560" fill="#ffffff"></rect></mask></defs></svg>