<svg xmlns="http://www.w3.org/2000/svg" version="1.1" xmlns:xlink="http://www.w3.org/1999/xlink" xmlns:svgjs="http://svgjs.dev/svgjs" width="1440" height="561" preserveAspectRatio="none" viewBox="0 0 1440 561">
    <g mask="url(&quot;#SvgjsMask1064&quot;)" fill="none">
        <rect width="1440" height="561" x="0" y="0" fill="rgba(39, 47, 55, 1)"></rect>
        <path d="M49.68,519.995C63.893,520.476,77.198,513.361,84.87,501.387C93.234,488.334,96.7,471.82,89.262,458.218C81.567,444.144,65.72,437.013,49.68,437.03C33.672,437.047,17.447,444.006,10.244,458.302C3.551,471.587,10.377,486.602,18.389,499.136C25.625,510.456,36.253,519.54,49.68,519.995" fill="rgba(53, 61, 69, 0.51)" class="triangle-float2"></path>
        <path d="M792.613,359.557C809.847,358.382,820.744,342.848,828.926,327.634C836.55,313.458,840.816,297.369,833.864,282.852C825.897,266.214,811.06,251.732,792.613,251.799C774.249,251.866,760.915,267.164,751.879,283.151C743.023,298.819,738.109,317.366,746.576,333.248C755.488,349.965,773.713,360.846,792.613,359.557" fill="rgba(53, 61, 69, 0.51)" class="triangle-float2"></path>
        <path d="M308.159,289.572C328.941,289.589,351.993,286.867,362.559,268.971C373.244,250.874,365.57,228.68,354.744,210.667C344.321,193.323,328.389,178.919,308.159,178.452C287.195,177.968,268.483,190.446,257.696,208.429C246.565,226.986,242.488,250.505,253.916,268.88C264.869,286.493,287.418,289.555,308.159,289.572" fill="rgba(53, 61, 69, 0.51)" class="triangle-float1"></path>
        <path d="M605.197,533.681C638.329,534.272,670.148,520.445,688.473,492.836C709.033,461.859,717.497,422.773,700.884,389.512C682.559,352.825,646.205,326.427,605.197,326.112C563.703,325.793,524.816,350.579,506.927,388.02C490.928,421.505,506.161,459.189,526.916,489.953C544.832,516.509,573.167,533.109,605.197,533.681" fill="rgba(53, 61, 69, 0.51)" class="triangle-float1"></path>
        <path d="M391.989,497.876C409.307,497.274,417.573,478.534,426.227,463.522C434.866,448.536,446.184,432.376,438.756,416.754C430.603,399.608,410.926,390.155,391.989,391.513C374.894,392.739,363.44,407.502,355.555,422.72C348.423,436.484,346.604,452.105,353.366,466.054C361.165,482.142,374.121,498.497,391.989,497.876" fill="rgba(53, 61, 69, 0.51)" class="triangle-float3"></path>
        <path d="M139.438,142.268C172.918,141.866,195.538,111.895,211.669,82.555C227.051,54.578,237.057,21.357,221.123,-6.309C205.166,-34.014,171.401,-43.601,139.438,-42.859C108.928,-42.151,79.613,-28.925,64.065,-2.665C48.231,24.079,49.794,56.754,64.134,84.328C79.796,114.444,105.495,142.676,139.438,142.268" fill="rgba(53, 61, 69, 0.51)" class="triangle-float3"></path>
        <path d="M1227.509,123.534C1261.805,122.925,1295.951,111.129,1314.073,82.006C1333.195,51.275,1334.222,12.209,1316.371,-19.277C1298.282,-51.183,1264.186,-70.606,1227.509,-70.683C1190.697,-70.761,1156.715,-51.349,1137.994,-19.653C1118.941,12.604,1115.591,53.411,1135.45,85.178C1154.337,115.39,1191.885,124.167,1227.509,123.534" fill="rgba(53, 61, 69, 0.51)" class="triangle-float2"></path>
        <path d="M564.999,157.265C604.932,154.843,635.125,124.809,654.289,89.692C672.514,56.294,678.595,16.486,659.909,-16.656C640.918,-50.339,603.651,-67.583,564.999,-68.68C524.1,-69.84,482.499,-56.675,460.28,-22.319C436.177,14.951,432.393,63.45,454.751,101.792C476.962,139.882,520.987,159.934,564.999,157.265" fill="rgba(53, 61, 69, 0.51)" class="triangle-float3"></path>
        <path d="M691.126,474.511C726.626,474.408,764.557,466.404,782.672,435.874C801.072,404.864,792.539,366.092,773.699,335.347C755.788,306.118,725.382,287.749,691.126,286.478C654.35,285.114,616.532,297.477,597.214,328.8C577.031,361.524,577.826,404.091,598.655,436.408C618.012,466.442,655.395,474.615,691.126,474.511" fill="rgba(53, 61, 69, 0.51)" class="triangle-float1"></path>
        <path d="M851.934,356.201C873.257,357.652,893.865,345.246,903.744,326.294C913.014,308.511,907.479,287.437,896.544,270.627C886.678,255.461,870.021,247.129,851.934,246.653C832.865,246.152,812.356,251.507,803.067,268.169C793.946,284.529,801.96,303.609,811.051,319.986C820.521,337.047,832.466,354.876,851.934,356.201" fill="rgba(53, 61, 69, 0.51)" class="triangle-float1"></path>
        <path d="M1277.82,488.164C1339.63,493.73,1403.912,465.303,1433.261,410.622C1461.442,358.117,1438.668,296.81,1407.926,245.762C1378.423,196.772,1335.006,152.946,1277.82,152.511C1220.027,152.071,1169.468,191.757,1144.237,243.754C1121.769,290.058,1139.645,341.241,1164.328,386.403C1190.446,434.19,1223.58,483.279,1277.82,488.164" fill="rgba(53, 61, 69, 0.51)" class="triangle-float2"></path>
        <path d="M970.165,109.59C995.831,109.525,1018.246,93.811,1031.153,71.626C1044.14,49.303,1046.617,22.087,1034.269,-0.596C1021.379,-24.274,997.098,-39.22,970.165,-40.404C940.925,-41.689,909.559,-32.364,895.5,-6.694C881.819,18.286,893.253,47.97,908.641,71.936C922.565,93.622,944.394,109.655,970.165,109.59" fill="rgba(53, 61, 69, 0.51)" class="triangle-float3"></path>
        <path d="M1089.813,277.33C1113.047,277.155,1131.53,259.7,1142.518,239.227C1152.858,219.96,1153.355,197.343,1143.108,178.027C1132.134,157.34,1113.209,140.865,1089.813,139.872C1064.774,138.809,1039.966,151.09,1028.055,173.141C1016.623,194.305,1023.445,219.342,1035.71,240.034C1047.681,260.23,1066.337,277.507,1089.813,277.33" fill="rgba(53, 61, 69, 0.51)" class="triangle-float3"></path>
        <path d="M798.385,281.728C836.167,280.06,866.981,255.505,886.556,223.146C906.99,189.366,917.771,148.814,900.16,113.48C880.72,74.477,841.945,44.973,798.385,46.245C756.475,47.469,726.741,82.469,706.408,119.137C686.837,154.429,675.743,196.452,695.613,231.576C715.729,267.136,757.569,283.53,798.385,281.728" fill="rgba(53, 61, 69, 0.51)" class="triangle-float1"></path>
        <path d="M1161.684,497.732C1200.764,495.883,1231.712,469.225,1251.965,435.751C1273.137,400.758,1288.134,357.848,1267.784,322.371C1247.365,286.775,1202.718,277.893,1161.684,278.364C1121.665,278.823,1081.255,291.025,1059.722,324.76C1036.582,361.012,1033.444,408.008,1055.284,445.058C1076.823,481.598,1119.315,499.737,1161.684,497.732" fill="rgba(53, 61, 69, 0.51)" class="triangle-float3"></path>
    </g>
    <defs>
        <mask id="SvgjsMask1064">
            <rect width="1440" height="561" fill="#ffffff"></rect>
        </mask>
        <style>
            @keyframes float1 {
                    0%{transform: translate(0, 0)}
                    50%{transform: translate(-10px, 0)}
                    100%{transform: translate(0, 0)}
                }

                .triangle-float1 {
                    animation: float1 5s infinite;
                }

                @keyframes float2 {
                    0%{transform: translate(0, 0)}
                    50%{transform: translate(-5px, -5px)}
                    100%{transform: translate(0, 0)}
                }

                .triangle-float2 {
                    animation: float2 4s infinite;
                }

                @keyframes float3 {
                    0%{transform: translate(0, 0)}
                    50%{transform: translate(0, -10px)}
                    100%{transform: translate(0, 0)}
                }

                .triangle-float3 {
                    animation: float3 6s infinite;
                }
        </style>
    </defs>
</svg>